<svg width="789" height="601" viewBox="0 0 789 601" fill="none" xmlns="http://www.w3.org/2000/svg">
<g clip-path="url(#clip0_1_2)">
<path d="M432.063 207.906L440.176 157.198L385.411 134.887L377.298 211.963L432.063 207.906Z" fill="#A0616A"/>
<path d="M418.223 173.499C449.067 173.499 474.071 148.496 474.071 117.652C474.071 86.8086 449.067 61.805 418.223 61.805C387.38 61.805 362.376 86.8086 362.376 117.652C362.376 148.496 387.38 173.499 418.223 173.499Z" fill="#A0616A"/>
<path d="M413.766 42.5696C415.382 43.5129 417.547 42.0857 418.065 40.2877C418.583 38.4897 417.98 36.5807 417.381 34.8078C416.377 31.8329 415.372 28.858 414.368 25.883C412.231 19.5534 409.963 13.0025 405.334 8.18481C398.349 0.913267 387.247 -0.936583 377.253 0.403567C364.418 2.12458 351.755 9.07419 345.788 20.5663C339.82 32.0583 342.361 48.0939 353.144 55.2638C337.776 72.8782 332.419 92.5088 333.265 115.87C334.11 139.231 359.568 160.73 376.17 177.187C379.877 174.939 383.248 164.407 381.209 160.581C379.17 156.755 382.091 152.322 379.566 148.798C377.041 145.273 374.929 150.885 377.482 147.381C379.093 145.17 372.806 140.082 375.2 138.759C386.781 132.357 390.633 117.922 397.906 106.868C406.679 93.535 421.695 84.5056 437.585 83.0076C446.338 82.1824 455.584 83.677 462.759 88.7588C469.934 93.8406 474.579 102.922 472.915 111.555C477.224 107.18 479.369 100.768 478.56 94.6811C477.751 88.5939 474.006 82.965 468.703 79.8672C471.927 69.206 469.166 56.9426 461.683 48.6926C454.2 40.4426 423.846 41.8477 412.922 44.019" fill="#2F2E41"/>
<path d="M412.07 83.3312C397.601 84.8931 387.154 97.4264 378.332 109.001C373.248 115.672 367.922 123.039 368.05 131.426C368.179 139.906 373.848 147.179 376.558 155.215C380.986 168.35 376.67 183.978 366.128 192.978C376.545 194.955 387.806 187.144 389.604 176.694C391.698 164.53 382.476 152.79 383.569 140.495C384.531 129.663 393.067 121.326 400.323 113.228C407.58 105.129 414.396 94.3814 411.057 84.0321" fill="#2F2E41"/>
<path d="M414.839 594.837C414.839 594.837 293.839 606.837 284.839 592.837C275.839 578.837 407.63 564.837 407.63 564.837L414.839 594.837Z" fill="#A0616A"/>
<path d="M337.689 370.5L335.189 383.772C341.998 393.821 342.65 404.445 338.689 415.5L476.689 416.5C475.206 401.547 473.582 385.532 479.264 370.837L337.689 370.5Z" fill="#A0616A"/>
<path d="M563.726 469.17L513.677 429.131C507.027 423.811 502.722 415.9 501.864 407.427L494.152 331.152L540.097 315.837L551.174 391.36L578.784 454.112L563.726 469.17Z" fill="#A0616A"/>
<path d="M372.189 203L439.189 200L510.189 233.819L481.189 372L334.189 383L314.189 230L372.189 203Z" fill="#F8B281"/>
<path d="M479.264 403.837C489.331 417.107 493.558 449.057 497.839 480.837C497.839 480.837 311.839 479.837 310.839 479.837C309.839 479.837 339.264 412.837 339.264 412.837L479.264 403.837H479.264Z" fill="#2F2E41"/>
<path d="M485.339 472.36L497.839 480.837C497.839 480.837 674.839 468.837 659.839 524.837C644.839 580.837 597.839 589.837 597.839 589.837L407.839 600.837L405.839 569.837C405.839 569.837 222.839 610.837 205.839 526.837C188.839 442.837 310.839 479.837 310.839 479.837L485.339 472.36L485.339 472.36Z" fill="#2F2E41"/>
<path d="M410.654 538.837C410.654 538.837 414.839 516.837 444.839 525.837C474.839 534.837 491.839 546.837 491.839 546.837L419.839 564.837L410.654 538.837Z" fill="#A0616A"/>
<path d="M485.689 231.5C485.689 231.5 519.689 219.5 532.689 258.5C545.689 297.5 542.689 329.5 542.689 329.5L492.689 345.5L485.689 231.5H485.689Z" fill="#F8B281"/>
<path d="M252.544 475.257L241.635 456.037L265.203 397.369L276.281 321.837L322.227 337.152L314.421 414.349C313.623 422.236 309.615 429.6 303.425 434.552L252.544 475.257H252.544Z" fill="#A0616A"/>
<path d="M330.689 231.5C330.689 231.5 296.689 219.5 283.689 258.5C270.689 297.5 273.689 329.5 273.689 329.5L323.689 345.5L330.689 231.5Z" fill="#F8B281"/>
<path d="M578.189 478C591.444 478 602.189 462.106 602.189 442.5C602.189 422.894 591.444 407 578.189 407C564.934 407 554.189 422.894 554.189 442.5C554.189 462.106 564.934 478 578.189 478Z" fill="#A0616A"/>
<path d="M241.189 484C254.444 484 265.189 468.106 265.189 448.5C265.189 428.894 254.444 413 241.189 413C227.935 413 217.189 428.894 217.189 448.5C217.189 468.106 227.935 484 241.189 484Z" fill="#A0616A"/>
<path d="M332.839 507.837L419.839 532.837L436.839 562.837L404.328 569.837" fill="#2F2E41"/>
</g>
<defs>
<clipPath id="clip0_1_2">
<rect width="788.67" height="600.837" fill="white"/>
</clipPath>
</defs>
</svg>
